<svg width="35" height="35" viewBox="0 0 35 35" fill="none" xmlns="http://www.w3.org/2000/svg">
<path d="M23.1939 21.6824L23.9941 12.2538L14.5698 11.4047C14.4728 11.3828 14.3722 11.382 14.2748 11.4024C14.1774 11.4228 14.0856 11.4638 14.0054 11.5228C13.9253 11.5817 13.8588 11.6572 13.8104 11.7441C13.762 11.8311 13.7328 11.9273 13.7248 12.0265C13.7169 12.1257 13.7303 12.2254 13.7642 12.3189C13.7981 12.4124 13.8518 12.4976 13.9215 12.5686C13.9911 12.6396 14.0753 12.6948 14.1682 12.7304C14.261 12.7661 14.3605 12.7813 14.4598 12.7752L21.5209 13.4226L11.3442 21.9618C11.2032 22.0802 11.1149 22.2498 11.0988 22.4333C11.0828 22.6168 11.1403 22.7991 11.2587 22.9402C11.377 23.0813 11.5466 23.1695 11.7301 23.1856C11.9136 23.2017 12.0959 23.1442 12.237 23.0258L22.4137 14.4865L21.8251 21.5528C21.8096 21.7365 21.8678 21.9187 21.9868 22.0594C22.1057 22.2002 22.2757 22.2879 22.4593 22.3033C22.643 22.3187 22.8252 22.2606 22.966 22.1416C23.1067 22.0227 23.1944 21.8527 23.2099 21.669L23.1939 21.6824Z" fill="black"/>
</svg>
