<svg width="20" height="20" viewBox="0 0 20 20" fill="none" xmlns="http://www.w3.org/2000/svg">
<mask id="mask0_2115_1875" style="mask-type:luminance" maskUnits="userSpaceOnUse" x="3" y="1" width="14" height="18">
<path d="M3.33334 1.66666H16.6667V18.3333H3.33334V1.66666Z" fill="white"/>
<path d="M15.8334 12.1425C15.8334 15.1008 13.2217 17.5 10 17.5C6.77835 17.5 4.16669 15.1017 4.16669 12.1425C4.16669 8.37583 8.03669 4.34833 9.47252 2.98417C9.61427 2.84779 9.80332 2.77161 10 2.77161C10.1967 2.77161 10.3858 2.84779 10.5275 2.98417C11.9634 4.3475 15.8334 8.375 15.8334 12.1417" fill="black"/>
</mask>
<g mask="url(#mask0_2115_1875)">
<path d="M15.8334 12.1425C15.8334 15.1008 13.2217 17.5 10 17.5C6.77835 17.5 4.16669 15.1017 4.16669 12.1425C4.16669 8.37583 8.03669 4.34833 9.47252 2.98417C9.61427 2.84779 9.80332 2.77161 10 2.77161C10.1967 2.77161 10.3858 2.84779 10.5275 2.98417C11.9634 4.3475 15.8334 8.375 15.8334 12.1417V12.1425Z" stroke="black" stroke-width="1.66667"/>
</g>
<path d="M10 15C9.11597 15 8.26812 14.6488 7.643 14.0237C7.01788 13.3986 6.66669 12.5507 6.66669 11.6667" stroke="black" stroke-width="0.833333" stroke-linecap="round"/>
</svg>
