<svg width="20" height="20" viewBox="0 0 20 20" fill="none" xmlns="http://www.w3.org/2000/svg">
<path d="M7.8525 17.475C6.30806 17.355 5.02972 16.7353 4.0175 15.6158C3.00583 14.4958 2.5 13.1239 2.5 11.5C2.5 10.3033 2.98278 8.97972 3.94833 7.52917C4.91389 6.07861 6.37556 4.48778 8.33333 2.75667C10.2383 4.44556 11.6733 5.99639 12.6383 7.40917C13.6033 8.82195 14.1128 10.1217 14.1667 11.3083V11.3467H13.3333V11.3083C13.28 10.305 12.8358 9.18056 12.0008 7.935C11.1658 6.68945 9.94333 5.33611 8.33333 3.875C6.68056 5.38889 5.43417 6.78472 4.59417 8.0625C3.75417 9.34028 3.33389 10.4861 3.33333 11.5C3.33333 12.9111 3.75694 14.09 4.60417 15.0367C5.45139 15.9833 6.53417 16.5167 7.8525 16.6367V17.475ZM9.51917 17.5V13.0133H12.4358C12.6414 13.0133 12.8156 13.09 12.9583 13.2433C13.1017 13.3972 13.1733 13.5769 13.1733 13.7825V15.16C13.1733 15.3656 13.1017 15.5397 12.9583 15.6825C12.815 15.8253 12.6408 15.8969 12.4358 15.8975H10.2567V17.5H9.51917ZM14.5833 17.5V13.0133H15.3208V14.68H17.5V13.0133H18.2375V17.5H17.5V15.4167H15.32V17.5H14.5833ZM10.2567 15.16H12.4358V13.75H10.2567V15.16Z" fill="black"/>
</svg>
